<svg xmlns="http://www.w3.org/2000/svg" width="1024" height="1024" viewBox="0 0 1024 1024" version="1.1">
	<path d="M 491.500 206.023 C 422.325 212.125, 361.645 238.775, 320.416 281.161 C 305.141 296.866, 293.971 312.033, 280.030 336 C 266.845 358.668, 259.536 378.127, 252.455 409.420 C 246.973 433.645, 245.331 464.007, 247.989 492 C 250.107 514.303, 256.993 540.696, 266.251 562 C 281.510 597.108, 296.684 619.518, 324.206 647.589 L 339 662.678 339 668.238 C 339 672.112, 336.297 683.765, 330.089 706.649 C 310.497 778.873, 310.474 778.985, 313.960 784.701 C 318.510 792.165, 325.447 792.789, 336.024 786.687 C 343.189 782.553, 408.056 743.340, 439.587 724.082 L 454.674 714.867 472.087 718.183 C 489.007 721.406, 490.222 721.499, 515 721.466 C 543.589 721.429, 551.661 720.389, 580.512 713.028 C 619.145 703.172, 657.077 684.089, 685 660.462 C 697.908 649.540, 719.712 626.560, 727 616.197 C 740.537 596.948, 757.966 563.856, 764.498 545 C 769.753 529.832, 773.748 513.659, 775.688 499.695 C 778.123 482.176, 778.140 443.455, 775.720 428.500 C 768.357 382.992, 755.918 351.256, 731.239 315.009 C 711.846 286.525, 695.049 269.600, 667.500 250.781 C 649.964 238.802, 634.463 231.059, 611.500 222.805 C 577.237 210.490, 524.486 203.113, 491.500 206.023 M 456.493 270.948 C 423.998 279.472, 406.291 298.486, 398.615 333.096 C 398.209 334.926, 396.192 336.817, 391.770 339.510 C 355.780 361.433, 342.621 397.479, 356.275 436.741 L 358.680 443.656 353.268 451.043 C 345.698 461.378, 341.643 468.985, 337.833 480 C 334.676 489.128, 334.549 490.088, 334.586 504.500 C 334.621 517.885, 334.915 520.447, 337.322 528.297 C 343.818 549.490, 354.648 563.255, 376.344 577.895 C 383.732 582.880, 383.792 582.957, 385.993 590.206 C 394.828 619.300, 416.347 642.192, 443.701 651.594 C 460.091 657.228, 474.134 657.055, 479.863 651.149 C 481.276 649.692, 484.248 647.600, 486.466 646.500 C 489.624 644.935, 491.152 643.196, 493.500 638.500 L 496.500 632.500 496.779 579 C 496.933 549.575, 496.673 517.400, 496.202 507.500 C 494.962 481.452, 493.646 479.106, 472.177 464.657 C 447.691 448.178, 426 424.387, 426 414.008 C 426 407.162, 430.791 400.864, 437.043 399.490 C 442.778 398.231, 446.514 400.566, 455.658 411.125 C 465.777 422.812, 477.364 432.406, 488.111 437.997 C 492.343 440.199, 496.085 442, 496.427 442 C 496.769 442, 496.925 407.688, 496.774 365.750 L 496.500 289.500 493.814 284.410 C 490.837 278.768, 485.980 274.051, 480.012 271.006 C 475.009 268.454, 466.085 268.432, 456.493 270.948 M 545.275 270.591 C 539.603 272.684, 531.652 280.005, 529.362 285.242 C 527.634 289.193, 527.478 293.419, 527.202 343.782 L 526.904 398.063 539.202 388.866 C 554.916 377.114, 558.130 374.075, 564.033 365.396 C 570.685 355.614, 576.439 353.067, 584.383 356.387 C 591.401 359.319, 594.509 367.808, 591.253 375.148 C 586.729 385.346, 569.367 403.604, 552 416.428 C 539.375 425.751, 533.466 431.279, 530.972 436.102 C 527.338 443.132, 526.923 450.682, 527.216 504.358 L 527.500 556.216 543.979 544.484 C 566.003 528.805, 579.185 517.895, 584.309 511.105 C 591.736 501.263, 600.186 499.537, 607.442 506.380 C 611.821 510.510, 612.850 515.486, 610.563 521.473 C 607.161 530.381, 588.391 548.064, 556.972 571.957 C 539.181 585.487, 534.920 589.810, 530.894 598.414 C 518.320 625.283, 531.714 653.470, 557.706 654.835 C 574.892 655.739, 603.361 643.028, 617.117 628.310 C 626.862 617.884, 632.396 607.065, 635.578 592.223 L 637.352 583.945 642.730 580.868 C 673.249 563.407, 689.939 538.144, 689.985 509.338 C 690.019 488.600, 683.250 468.949, 669.810 450.765 L 664.832 444.029 667.905 436.419 C 676.952 414.014, 675.613 389.518, 664.276 370 C 659.164 361.200, 645.496 347.760, 634.785 341 C 629.992 337.975, 626.054 335.012, 626.035 334.415 C 625.953 331.884, 621.571 319.908, 618.003 312.465 C 608.573 292.795, 592.820 279.691, 570.008 272.541 C 559.264 269.174, 550.901 268.514, 545.275 270.591" stroke="none" fill="#9df115ff" fill-rule="evenodd"/>
</svg>